<svg width="50" height="50" viewBox="0 0 50 50" fill="none" xmlns="http://www.w3.org/2000/svg">
<path d="M2.82191 7.9603C-0.436469 5.63574 1.20848 0.5 5.21141 0.5H28.9266C30.4639 0.5 31.9697 0.935814 33.2692 1.75687L34.5978 2.59633C36.8669 4.03 39.8104 3.79298 41.8206 2.01474L42.2023 1.6772C43.0598 0.91871 44.1651 0.5 45.3101 0.5C47.9003 0.5 50.0001 2.59923 50.0001 5.18876V44.8157C50.0001 47.4028 47.9023 49.5 45.3146 49.5C44.1671 49.5 43.0593 49.079 42.2016 48.3167L41.822 47.9794C39.8127 46.1939 36.8631 45.9561 34.5937 47.3966L33.2681 48.238C31.9695 49.0622 30.259 49.2926 28.7208 49.2926H5.08187C0.962174 49.2926 -0.572389 44.2495 2.73353 41.792C7.20759 38.4662 7.35493 31.8189 3.03265 28.2982L2.81728 28.1226C0.688469 26.3886 0.679755 23.1407 2.79924 21.3952L3.27392 21.0043C5.30095 19.335 6.29128 16.9531 6.27005 14.5845C6.24755 12.0733 5.08818 9.57705 2.82191 7.9603Z" fill="white"/>
<path fill-rule="evenodd" clip-rule="evenodd" d="M43.285 45.235C43.285 46.5129 44.3213 47.5489 45.5995 47.5489C46.8777 47.5489 47.914 46.5129 47.914 45.235V4.85539C47.914 3.57747 46.8777 2.5415 45.5995 2.5415C44.3213 2.5415 43.285 3.57747 43.285 4.85539V19.9184C43.285 21.4218 42.0658 22.6406 40.5621 22.6406H35.6456C36.3628 21.7256 36.9494 20.7106 37.3873 19.6258C37.9914 18.1296 38.3016 16.528 38.3016 14.9119C38.3016 13.2959 37.9914 11.6943 37.3873 10.198C36.7833 8.70169 35.8963 7.33813 34.7742 6.18674C33.6519 5.0352 32.3161 4.11837 30.8416 3.4917C29.4289 2.89131 27.917 2.56925 26.3858 2.54322C26.3556 2.54208 26.3252 2.54151 26.2945 2.54151H26.1906L26.184 2.5415H5.87258C4.55672 2.5415 3.49001 3.60793 3.49001 4.92345C3.49001 5.61943 3.7886 6.2457 4.26469 6.68121C4.5781 7.01024 4.98894 7.25338 5.46562 7.36061C9.44306 8.25549 11.4123 11.4615 11.4017 14.868C11.3911 18.2356 9.43636 21.531 5.57027 22.6423C4.28488 22.6911 3.25781 23.7483 3.25781 25.0452C3.25781 26.2346 4.12171 27.2225 5.25645 27.4156C5.2771 27.421 5.29788 27.4262 5.31878 27.4312C13.3666 29.3345 13.2197 40.6342 5.44864 42.4141C4.94683 42.5291 4.51865 42.7946 4.2009 43.1521C3.76208 43.5842 3.49001 44.1849 3.49001 44.8494C3.49001 46.1649 4.55672 47.2313 5.87258 47.2313H26.184V47.2592C27.784 47.2592 29.3669 46.936 30.8416 46.3092C32.3161 45.6824 33.6519 44.7657 34.7742 43.6142C35.8963 42.4627 36.7833 41.0991 37.3873 39.6027C37.9914 38.1064 38.3016 36.5049 38.3016 34.8888C38.3016 33.2729 37.9914 31.6713 37.3873 30.175C36.995 29.2034 36.4836 28.2878 35.8659 27.4498H40.5621C42.0658 27.4498 43.285 28.6687 43.285 30.1721V45.235ZM13.6127 27.4498H27.7182C28.1475 27.5447 28.5689 27.6792 28.9773 27.8527C29.865 28.23 30.6755 28.7846 31.3613 29.4883C32.047 30.1918 32.5941 31.0305 32.9685 31.9578C33.3429 32.8854 33.5364 33.8815 33.5364 34.8888C33.5364 35.8962 33.3429 36.8923 32.9685 37.8199C32.5941 38.7473 32.047 39.586 31.3613 40.2894C30.6755 40.9931 29.865 41.5478 28.9773 41.925C28.2124 42.2501 27.4019 42.4384 26.58 42.4844C26.4865 42.4731 26.3912 42.4674 26.2945 42.4674H13.7293C16.9274 38.1121 16.8414 31.8258 13.6127 27.4498ZM26.4861 22.512C27.3399 22.4757 28.1831 22.2855 28.9773 21.948C29.865 21.5707 30.6755 21.0161 31.3613 20.3126C32.047 19.6089 32.5941 18.7703 32.9685 17.8429C33.3429 16.9154 33.5364 15.9193 33.5364 14.9119C33.5364 13.9046 33.3429 12.9084 32.9685 11.981C32.5941 11.0536 32.047 10.2149 31.3613 9.51128C30.6755 8.80776 29.865 8.25311 28.9773 7.87586C28.0912 7.49933 27.1441 7.30605 26.189 7.30539H13.7352C15.3665 9.51198 16.1752 12.2108 16.1668 14.8829C16.1584 17.577 15.3216 20.3153 13.6619 22.575L26.2812 22.5045C26.3501 22.5041 26.4184 22.5067 26.4861 22.512Z" fill="#F95C3B"/>
</svg>
