<svg width="251" height="244" viewBox="0 0 251 244" fill="none" xmlns="http://www.w3.org/2000/svg">
<g clip-path="url(#clip0_5008_80865)">
<path d="M129.468 16.0448C157.346 -11.6568 204.384 12.4982 198.114 51.295V51.295C195.309 68.6455 203.996 85.8284 219.631 93.857V93.857C254.591 111.81 246.154 164.01 207.319 170.036V170.036C189.951 172.73 176.293 186.302 173.489 203.652V203.652C167.218 242.449 114.965 250.556 97.2342 215.483V215.483C89.3045 199.798 72.1769 191.002 54.809 193.697V193.697C15.9733 199.722 -7.88389 152.532 19.9933 124.83V124.83C32.4603 112.442 35.5324 93.4344 27.6027 77.7493V77.7493C9.87151 42.6763 47.38 5.40408 82.3403 23.3566V23.3566C97.975 31.3852 117.001 28.4333 129.468 16.0448V16.0448Z" fill="white"/>
<path d="M125.549 73.4515C136.998 62.075 156.316 71.995 153.74 87.9281C152.589 95.0536 156.156 102.11 162.577 105.408C176.935 112.78 173.47 134.218 157.521 136.693C150.388 137.799 144.779 143.373 143.627 150.498C141.052 166.431 119.593 169.761 112.311 155.357C109.054 148.915 102.02 145.303 94.8877 146.41C78.9386 148.884 69.1409 129.504 80.5896 118.128C85.7095 113.04 86.9712 105.234 83.7146 98.7924C76.4327 84.3885 91.8368 69.0815 106.194 76.4543C112.615 79.7515 120.429 78.5392 125.549 73.4515Z" fill="#EEEDF2"/>
</g>
<defs>
<clipPath id="clip0_5008_80865">
<rect width="251" height="244" fill="white"/>
</clipPath>
</defs>
</svg>
