<svg width="213" height="213" viewBox="0 0 213 213" fill="none" xmlns="http://www.w3.org/2000/svg">
<path d="M188.492 106.422L195.103 113.034C217.758 135.688 217.758 172.427 195.103 195.104C172.448 217.758 135.71 217.758 113.033 195.104L106.422 188.492L99.8107 195.104C77.1558 217.758 40.3955 217.758 17.7407 195.104C-4.9142 172.449 -4.9142 135.71 17.7407 113.034L24.3519 106.422L17.7407 99.811C-4.9142 77.1562 -4.9142 40.4174 17.7407 17.741C40.3955 -4.91386 77.1343 -4.91386 99.8107 17.741L106.422 24.3523L113.033 17.741C135.688 -4.91386 172.427 -4.91386 195.103 17.741C217.758 40.3959 217.758 77.1346 195.103 99.811L188.492 106.422ZM148.824 103.881C159.506 93.1998 159.506 75.8641 148.824 65.1827C138.143 54.5013 120.807 54.5013 110.126 65.1827L107.003 68.3053L103.881 65.1827C93.1994 54.5013 75.8637 54.5013 65.1824 65.1827C54.501 75.8641 54.501 93.1998 65.1824 103.881L68.3049 107.004L65.1824 110.126C54.501 120.808 54.501 138.143 65.1824 148.825C75.8637 159.506 93.1994 159.506 103.881 148.825L107.003 145.702L110.126 148.825C120.807 159.506 138.143 159.506 148.824 148.825C159.506 138.143 159.506 120.808 148.824 110.126L145.702 107.004L148.824 103.881Z" fill="white"/>
</svg>
