<svg width="258" height="258" viewBox="0 0 258 258" fill="none" xmlns="http://www.w3.org/2000/svg">
<path fill-rule="evenodd" clip-rule="evenodd" d="M228.814 170.349C246.566 207.625 207.651 246.54 170.349 228.813C156.501 267.728 101.499 267.728 87.651 228.813C50.3754 246.566 11.4601 207.65 29.1866 170.349C-9.72888 156.501 -9.72888 101.499 29.1866 87.6501C11.434 50.3748 50.3495 11.4597 87.651 29.1863C101.499 -9.72876 156.501 -9.72876 170.349 29.1863C207.625 11.4333 246.54 50.3494 228.814 87.6501C267.729 101.499 267.729 156.501 228.814 170.349ZM180.298 148.829C189.225 167.622 169.623 187.224 150.829 178.298C143.86 197.9 116.14 197.9 109.171 178.298C90.3776 187.224 70.775 167.622 79.702 148.829C60.0995 141.86 60.0995 114.139 79.702 107.171C70.7753 88.3777 90.3776 68.7751 109.171 77.7019C116.14 58.0994 143.86 58.0994 150.829 77.7019C169.623 68.7751 189.225 88.3777 180.298 107.171C199.901 114.139 199.901 141.86 180.298 148.829Z" fill="white"/>
</svg>
