<svg width="221" height="221" viewBox="0 0 221 221" fill="none" xmlns="http://www.w3.org/2000/svg">
<path d="M169.349 69.8665C162.965 69.8665 156.881 70.8577 151.241 72.6579C153.719 66.2256 155.128 59.065 155.143 51.5201C155.201 23.4037 136.115 0.586914 112.517 0.586914C88.9182 0.586914 69.7377 23.3835 69.6796 51.5201C69.6626 59.773 71.3033 67.5404 74.1985 74.438C67.3149 71.5252 59.5598 69.8665 51.3165 69.8665C23.2327 69.8665 0.402824 89.0221 0.354035 112.648C0.305246 136.274 23.0358 155.429 51.1398 155.429C56.9384 155.429 62.5165 154.6 67.7121 153.103C66.2063 158.302 65.3663 163.885 65.3543 169.69C65.2963 197.806 84.3826 220.623 107.981 220.623C131.58 220.623 150.76 197.826 150.818 169.69C150.831 163.298 149.854 157.209 148.067 151.566C154.487 154.034 161.637 155.429 169.173 155.429C197.257 155.429 220.086 136.274 220.135 112.648C220.184 89.0221 197.453 69.8665 169.349 69.8665Z" fill="white"/>
</svg>
