<svg width="222" height="219" viewBox="0 0 222 219" fill="none" xmlns="http://www.w3.org/2000/svg">
<path d="M207.049 88.542L182.886 80.066L193.9 57.2382C202.982 38.4003 183.047 18.7486 163.938 27.701L140.781 38.5591L132.183 14.7388C125.095 -4.91294 96.9048 -4.91294 89.8169 14.7388L81.2188 38.5591L58.0623 27.701C38.9532 18.7486 19.0185 38.4003 28.0999 57.2382L39.1143 80.066L14.951 88.542C-4.98367 95.5293 -4.98367 123.32 14.951 130.307L39.1143 138.783L28.0999 161.611C19.0185 180.449 38.9532 200.1 58.0623 191.148L81.2188 180.29L89.8169 204.11C96.9048 223.762 125.095 223.762 132.183 204.11L140.781 180.29L163.938 191.148C183.047 200.1 202.982 180.449 193.9 161.611L182.886 138.783L207.049 130.307C226.984 123.32 226.984 95.5293 207.049 88.542ZM150.95 117.901L141.083 121.354L145.574 130.684C149.279 138.366 141.144 146.386 133.351 142.733L123.887 138.307L120.383 148.033C117.484 156.053 105.986 156.053 103.087 148.033L99.5829 138.307L90.1189 142.733C82.3263 146.386 74.1913 138.366 77.8963 130.684L82.3867 121.354L72.52 117.901C64.385 115.042 64.385 103.708 72.52 100.849L82.3867 97.3952L77.8963 88.0656C74.1913 80.3836 82.3263 72.3641 90.1189 76.0165L99.5829 80.4431L103.087 70.7165C105.986 62.697 117.484 62.697 120.383 70.7165L123.887 80.4431L133.351 76.0165C141.144 72.3641 149.279 80.3836 145.574 88.0656L141.083 97.3952L150.95 100.849C159.085 103.708 159.085 115.042 150.95 117.901Z" fill="white"/>
</svg>
