<svg width="231" height="236" viewBox="0 0 231 236" fill="none" xmlns="http://www.w3.org/2000/svg">
<path d="M0.638868 82.8881C5.78334 66.2077 41.6293 61.6554 87.3103 69.7688C103.124 26.1512 124.99 -2.61616 142.008 1.26882C159.65 5.28012 166.661 43.1248 160.767 91.6993C205.797 110.874 235.05 135.877 229.703 153.161C224.558 169.841 188.712 174.394 143.031 166.28C127.226 209.914 105.352 238.665 88.3339 234.78C70.6919 230.769 63.6808 192.924 69.5741 144.35C24.5447 125.176 -4.70824 100.172 0.638868 82.8881ZM102.257 178.671C110.607 180.578 121.346 166.465 129.089 145.069C151.506 149.053 169.082 146.818 171.606 138.633C174.235 130.154 159.861 117.887 137.789 108.478C140.684 84.6335 137.241 66.0769 128.583 64.1148C120.232 62.2078 109.493 76.3211 101.751 97.7174C79.3337 93.7336 61.7576 95.968 59.2338 104.153C56.604 112.633 70.9782 124.899 93.0506 134.308C90.1559 158.153 93.5986 176.709 102.257 178.671Z" fill="white"/>
</svg>
